<svg enable-background="new 0 0 400 400" viewBox="0 0 400 400" xmlns="http://www.w3.org/2000/svg"><path d="m148.64 56.2c-.22 10.14-.41 20.08-.65 30.01-.34 13.98-.36 27.99-1.18 41.95-.89 15.3-2.76 30.53-3.81 45.82-2.22 32.17-9.48 63.4-16.81 94.65-4.64 19.79-13.55 37.8-22 56.04-3.81 8.21-7.46 16.5-11.4 24.65-1.39 2.89-3.2 5.64-5.17 8.19-2.97 3.84-8.05 4.63-11.95 1.91-.78-.55-1.31-2.39-1.03-3.37 1.89-6.76 3.44-13.7 6.21-20.11 5.36-12.4 11.16-24.65 17.31-36.68 11.24-21.98 17.61-45.39 21.02-69.65 3.49-24.81 6.93-49.64 9.54-74.55 1.35-12.87.91-25.93 1.21-38.9.45-19.58.8-39.16 1.3-58.74.06-2.38-.55-3.8-2.93-4.4-8.55-2.15-17.08-4.42-25.64-6.52-8.93-2.19-14.11-7.76-14.45-15.76-.16-3.73 3.14-6.31 6.78-5.19 11.21 3.47 22.5 6.71 33.57 10.57 8.56 2.98 17.33 4.61 26.26 4.76 15.76.28 31.52.09 47.28-.08 19.25-.21 38.3 1.22 56.37 8.35 12.05 4.76 21.65 12.73 26.39 25.24 4.84 12.79 2.43 24.99-4.63 36.21-9.03 14.35-21.67 25.55-33.71 37.24-8.64 8.39-15.09 18.14-16.73 30.26-1.25 9.26-.21 18.54 1.89 27.67 2.12 9.22 5.87 17.77 10.27 26.12 21.55 40.9 46.2 79.96 70.13 119.46 3.21 5.31 6.27 10.83 8.47 16.6 2.05 5.38-.35 7.74-6.11 7.29-4.54-.35-7.79-2.04-10.59-6.19-28.04-41.51-51.83-85.45-74.87-129.82-7.99-15.38-13.57-31.71-14.96-49.1-1.29-16.12 3.58-30.52 13.14-43.64 9.89-13.58 22.5-24.58 33.6-37 4.15-4.64 7.8-9.51 9.3-15.69 1.38-5.7 1.08-11.33-.78-16.85-.36-1.06-1.29-2.04-2.19-2.79-14.14-11.68-30.6-17.73-48.75-18.18-22.02-.54-44.07-.11-66.11-.09-1.08.01-2.17.19-3.59.31z" fill="#010103"/></svg>
