<svg xmlns="http://www.w3.org/2000/svg" id="svg2" viewBox="0 0 400 400"><path id="path1" fill="#010102" d="M158 98c4-24 26-16 9 4-7 35 32 62 59 71 24-29-10-65-13-91 6 15 33 26 25-3 1-33 14-16 7 7-10 21 19 55 11 62-34 6-10 64-40 84-29 21-47 55-45 91 3 15-14 65-11 23-10-38 30-73 16-106-30-31-37 16-46 36-1-44 19-92 21-138 0-33-23-72-9-102 17 16 2 44 16 62m6 132c31-12 35-71 3-82-19 14-22 65-3 82m23 1c36 14 51-69 12-46-8 14-2 33-12 46"/><path id="path2" fill="#010102" d="M178 71c-16-19 33-61 15-22q-8 10-15 22"/></svg>