<svg enable-background="new 0 0 400 400" viewBox="0 0 400 400" xmlns="http://www.w3.org/2000/svg"><path d="m211.62 374.84c-2.17-8.13-4.27-15.96-6.36-23.8-1.75-6.58-3.23-13.24-5.34-19.7-.92-2.81-3.13-5.2-5.16-8.42-3.08 4.11-5.59 7.34-7.97 10.67-2.47 3.46-4.72 7.08-7.24 10.5-3.79 5.13-8.93 7.96-15.57 8.62-.42-4.41-1.04-8.29 2.98-11.82 7.66-6.72 12.66-15.61 17.86-24.22 5.03-8.33 11.8-15.16 18.18-22.35.9-1.01 1.83-2.44 1.86-3.69.3-11.73-.75-23.27-6.22-33.94-.73-1.42-1.89-2.73-3.12-3.77-2.05-1.72-4.26-3.28-6.52-4.72-11.3-7.25-21.21-16.01-29.45-26.64-1.13-1.46-2.71-2.69-4.3-3.67-8.48-5.21-16.97-10.42-25.57-15.42-9.6-5.58-17.05-12.96-20.85-23.62-.18-.51-.29-1.06-.51-1.87 4.81-.23 9.21-.76 13.51 2.25 5.55 3.87 11.56 7.08 17.57 10.69 2.72-5.67 3.13-11.25 2.27-16.97-.5-3.31-1.29-6.59-1.69-9.91-.8-6.72 1.99-11.69 7.77-15.11 3.98 5.62 7.87 11.2 11.88 16.7.97 1.34 2.24 2.5 3.52 3.57 5.04 4.23 7.13 4.23 12.12.19 2.85-2.31 5.71-4.62 8.9-7.2 2.1 10.46 1.67 20.46.01 30.52-.74 4.49-1.69 9.15-1.22 13.59 1.01 9.49 7.85 14.57 16.69 18.94 1.04-3.97 2.12-7.64 2.92-11.36.32-1.5.22-3.14.04-4.69-2.22-18.3.41-36.4 2.27-54.52 1.17-11.38.24-22.57-3.01-33.53-.37-1.26-1.38-2.55-2.45-3.35-9.96-7.41-20.08-14.62-30-22.09-7.46-5.61-13.11-12.52-13.98-22.32-.09-1-.07-2.01-.04-3.02.01-.43.17-.85.33-1.59 5.73 1.86 11.58 2.39 16.03 7.51 5.03 5.79 10.85 11.04 18.3 13.84 6.22 2.34 6.77 2.02 9.12-4.16 3.42-8.98 3.3-18.15 1.72-27.45-1.75-10.34-.89-20.51 2.35-30.47.2-.62.53-1.2.85-1.91 7.92 5.04 9.25 12.48 8.38 20.89-.38 3.65-.72 7.37-.38 11 .19 2.05 1.41 4.31 2.82 5.89 3.81 4.28 7.36 3.86 10.07-1.07 1.72-3.12 3.18-6.4 4.51-9.71 2.67-6.66 5.81-8.54 13.23-7.38 1.82 7.55 1.03 14.99-1.78 22.2-3.53 9.06-7.29 18.02-10.99 27.01-.33.8-.87 1.58-1.49 2.19-6.44 6.32-9.14 14.3-9.6 22.99-.54 10.28-.51 20.58-.69 30.88-.02 1.11-.01 2.3.36 3.32 4.12 11.27 4.01 23.05 4.34 34.78.17 6.14.23 6.14 6.72 8.06 5.05-7.09 10.84-13.91 15.04-21.59 2.51-4.6 2.67-10.54 3.63-15.92 1.46-8.18 4.32-13.09 10.2-16.79 2.75 2.29 5.37 4.72 8.25 6.81 4.2 3.04 8.65 3.81 13.47 1.03 3.3-1.9 4.67-1.02 4.48 2.68-.23 4.4-1.15 8.39-4.62 11.79-2.62 2.56-4.37 6.08-6.21 9.34-1.17 2.07-.49 3.76 2.01 4.59 2.22.73 4.34 1.77 6.53 2.61 2.35.91 3.6 2.47 3.48 5.1-.12 2.51-1.51 3.57-3.8 4.31-14.56 4.7-29.06 9.63-43.65 14.25-3.3 1.04-5.25 2.9-6.64 5.92-3.48 7.55-5.03 15.56-5.42 23.74-.97 20.74-.15 41.41 4.42 61.75.65 2.89 2.18 5.94 4.17 8.13 8.8 9.68 17.85 19.14 26.95 28.53 5.42 5.59 7.5 12.2 7.25 19.93-13.82-2.65-26.46-7.7-38.93-15.92-1.95 6.5-3.75 12.28-5.4 18.1-1.1 3.86-1.64 7.9-3.04 11.64-1.6 4.17-4.7 7.15-10.15 8.63z" fill="#010102"/></svg>
