<svg xmlns="http://www.w3.org/2000/svg" id="svg3" viewBox="0 0 400 400"><g id="g3" fill="#010103"><path id="path1" d="M221 40c5 39 74 16 72 64-2 30-55 60-18 87 25 8 27 43-1 19-37-24-27-66 0-92 10-51-62-50-95-40-58 19 8 61 3 96 2 22-50 64-47 33 43-16 34-67 4-91-15-46 55-44 60-70-25-16-86-13-90 27 1 71-5 142-6 213 5 20-9 73-17 27 8-87 4-176 13-263 19-38 69-19 102-24 29 5 85-11 97 9-21 17-53 0-77 5"/><path id="path2" d="M173 203c55 33-66 70-4 92 26 9 7-55 26-23-5 24 22 66 30 22 0-26 24-34 18-3 32 16 43-34 6-37-23-14-6-70 1-26 29 19 61 70 8 81-43-1-30 38-23 61-28-21-43-69-87-65-35-27 7-58 24-76q0-14 1-26"/><path id="path3" d="M206 120c-25 12-58-17-17-14 19 0 74-8 66 11-61-4-18 55-42 83-18-20-2-55-7-80"/></g></svg>